<svg id="Layer_1" data-name="Layer 1" xmlns="http://www.w3.org/2000/svg" viewBox="0 0 20 18">
    <defs>
        <style>
            .cls-1,
            .cls-2 {
                fill: #747488;
            }

            .cls-1 {
                fill-rule: evenodd;
            }
        </style>
    </defs>
    <path class="cls-1"
        d="M19.89,8.55a11.3,11.3,0,0,0-8-6.37.13.13,0,0,0-.08,0C10.26,2,9.75,2,9.66,2h0A4.63,4.63,0,0,0,9.1,2l-.4,0c-.33,0-.6.1-.82.14A10.75,10.75,0,0,0,5.46,3,7.88,7.88,0,0,0,3.72,4.13,12.48,12.48,0,0,0,.11,8.55a1,1,0,0,0,0,.9A11.11,11.11,0,0,0,10,16a10.14,10.14,0,0,0,4.53-1.06,11.4,11.4,0,0,0,1.74-1.09A11.27,11.27,0,0,0,18,12.31l0,0c.17-.19.33-.39.49-.6s.38-.49.54-.73l.25-.41a10.73,10.73,0,0,0,.62-1.1A1,1,0,0,0,19.89,8.55ZM16.55,10.9a10.15,10.15,0,0,1-1.29,1.17l-.44.33a10.92,10.92,0,0,1-1.81,1A8.33,8.33,0,0,1,10,14,9,9,0,0,1,2.13,9a10.22,10.22,0,0,1,3-3.44A9.15,9.15,0,0,1,7,4.58,8,8,0,0,1,9.66,4,7.47,7.47,0,0,1,11,4.07,9.15,9.15,0,0,1,17.87,9a11.25,11.25,0,0,1-1.22,1.79Z" />
    <path class="cls-2" d="M11.77,2.16C10.26,2,9.75,2,9.66,2H10A9.63,9.63,0,0,1,11.77,2.16Z" />
    <path class="cls-2" d="M19.28,10.55,19,11l.25-.41Z" />
    <path class="cls-2"
        d="M13,9a3,3,0,0,1-.3,1.29,2.89,2.89,0,0,1-1.42,1.42,2.18,2.18,0,0,1-.62.22A2.93,2.93,0,0,1,10,12,3,3,0,0,1,7,9a2.93,2.93,0,0,1,.07-.67,2.64,2.64,0,0,1,.12-.4,1.47,1.47,0,0,1,.1-.22A2.89,2.89,0,0,1,8.71,6.29,3,3,0,0,1,10,6,3,3,0,0,1,13,9Z" />
    <path class="cls-2"
        d="M10.67,11.93a3,3,0,0,1-3.6-3.6A2.93,2.93,0,0,0,7,9a3,3,0,0,0,3,3A2.93,2.93,0,0,0,10.67,11.93Z" />
    <path class="cls-1" d="M11.86,2.17h0a.13.13,0,0,0-.08,0Z" />
</svg>